<?xml version="1.0" encoding="UTF-8"?>
<svg version="1.1" xmlns="http://www.w3.org/2000/svg" width="500" height="500">
<path d="M0 0 C0.88315384 0.00202423 1.76630768 0.00404846 2.67622375 0.00613403 C3.60135269 0.00438171 4.52648163 0.00262939 5.47964478 0.00082397 C8.55365343 -0.00359611 11.62760508 -0.000656 14.70161438 0.00271606 C16.82771313 0.00204307 18.9538118 0.00107308 21.07991028 -0.00018311 C25.54219798 -0.00166029 30.00446571 0.00049514 34.4667511 0.00515747 C40.20057007 0.01085477 45.93434223 0.00757587 51.66815948 0.00158501 C56.06032161 -0.00202005 60.45247255 -0.00088228 64.84463501 0.0017128 C66.95945237 0.00238222 69.07427072 0.00155312 71.18908691 -0.00076675 C74.13925384 -0.00329237 77.08934384 0.00054603 80.039505 0.00613403 C80.92265884 0.0041098 81.80581268 0.00208557 82.71572876 0 C88.74360204 0.02126622 88.74360204 0.02126622 89.85786438 1.13552856 C89.95746059 2.97711879 89.98866848 4.82249823 89.99067688 6.66677856 C89.99196594 7.78697388 89.993255 8.90716919 89.99458313 10.06130981 C89.99071594 11.240802 89.98684875 12.42029419 89.98286438 13.63552856 C89.98673157 14.81502075 89.99059875 15.99451294 89.99458313 17.20974731 C89.99329407 18.32994263 89.992005 19.45013794 89.99067688 20.60427856 C89.98954895 21.64004028 89.98842102 22.675802 89.98725891 23.74295044 C89.85786438 26.13552856 89.85786438 26.13552856 88.85786438 27.13552856 C86.80307985 27.25933695 84.74407478 27.31351059 82.68574524 27.34085083 C82.04186356 27.35075043 81.39798187 27.36065002 80.73458862 27.37084961 C78.59733307 27.40254384 76.46005525 27.42725306 74.32270813 27.45193481 C72.84439502 27.47249752 71.36608789 27.49349381 69.88778687 27.51490784 C65.98994267 27.57019916 62.0920448 27.61957714 58.19410706 27.66775513 C53.52095902 27.7267328 48.84790945 27.79299944 44.17484283 27.85805511 C37.06924329 27.95615344 29.96358167 28.0449485 22.85786438 28.13552856 C22.52786438 38.36552856 22.19786438 48.59552856 21.85786438 59.13552856 C25.81657532 59.123927 29.77528625 59.11232544 33.85395813 59.10037231 C37.6697939 59.09258323 41.4856288 59.08650562 45.3014679 59.08059692 C47.96227919 59.07555474 50.6230877 59.0687212 53.28388977 59.06008911 C57.09891954 59.04801848 60.91391282 59.04229927 64.72895813 59.03787231 C65.92685471 59.03271103 67.12475128 59.02754974 68.35894775 59.02223206 C70.01054649 59.02211876 70.01054649 59.02211876 71.69551086 59.02200317 C73.15778358 59.01867226 73.15778358 59.01867226 74.64959717 59.01527405 C76.85786438 59.13552856 76.85786438 59.13552856 77.85786438 60.13552856 C77.94524083 61.98922468 77.96484591 63.84620397 77.95552063 65.70193481 C77.95068665 67.38899536 77.95068665 67.38899536 77.945755 69.11013794 C77.93318665 70.8861438 77.93318665 70.8861438 77.92036438 72.69802856 C77.91585266 73.88589966 77.91134094 75.07377075 77.9066925 76.29763794 C77.89486113 79.24365082 77.87837725 82.18956537 77.85786438 85.13552856 C76.84642113 85.15098976 76.84642113 85.15098976 75.81454468 85.16676331 C68.82342856 85.27458625 61.8324477 85.38920299 54.84150696 85.50784302 C52.22923094 85.55126981 49.6169251 85.59293895 47.0045929 85.63284302 C43.25897719 85.69035863 39.51351269 85.7541062 35.76802063 85.81912231 C34.59199783 85.83583481 33.41597504 85.8525473 32.20431519 85.86976624 C31.12327011 85.88971146 30.04222504 85.90965668 28.92842102 85.9302063 C27.49279564 85.95352272 27.49279564 85.95352272 26.02816772 85.97731018 C23.87923744 85.89621466 23.87923744 85.89621466 22.85786438 87.13552856 C22.7346368 88.91456214 22.67997419 90.69839059 22.65254211 92.48147583 C22.63259689 93.62258316 22.61265167 94.76369049 22.59210205 95.93937683 C22.56703331 97.80184303 22.56703331 97.80184303 22.54145813 99.70193481 C22.52067703 100.96569443 22.49989594 102.22945404 22.47848511 103.5315094 C22.42402724 106.8967149 22.37382158 110.26193029 22.32563782 113.62722778 C22.27546679 117.05908757 22.21975783 120.49085687 22.164505 123.92263794 C22.05716247 130.66019617 21.95542113 137.39782192 21.85786438 144.13552856 C18.47394859 145.18680784 15.52583013 145.17640454 11.99848938 145.01443481 C10.32593079 144.94192505 10.32593079 144.94192505 8.61958313 144.86795044 C7.46071594 144.81187622 6.30184875 144.755802 5.10786438 144.69802856 C3.93352844 144.64582153 2.7591925 144.5936145 1.54927063 144.53982544 C-1.34814226 144.41026633 -4.24520055 144.2753041 -7.14213562 144.13552856 C-7.16546355 125.50791741 -7.18311427 106.88030921 -7.19394779 88.2526865 C-7.19911098 79.60417252 -7.2061541 70.95566759 -7.21757507 62.30715942 C-7.22752123 54.77188277 -7.23398888 47.23661268 -7.23622411 39.70132965 C-7.23753134 35.70897004 -7.24061792 31.7166292 -7.24786568 27.72427559 C-7.25462482 23.97085758 -7.2567528 20.21746618 -7.2552433 16.46404266 C-7.25551968 15.08249963 -7.25752543 13.70095575 -7.26134109 12.31941795 C-7.26627661 10.44115712 -7.26453358 8.56288219 -7.26239014 6.68461609 C-7.26331193 5.63100671 -7.26423372 4.57739733 -7.26518345 3.49186039 C-7.01874134 -1.22743779 -4.02743364 0.01420871 0 0 Z " fill="#1E201F" transform="translate(212.1421356201172,130.86447143554688)"/>
<path d="M0 0 C3.48330216 0.64505596 6.09432866 1.98217268 9 4 C9 4.66 9 5.32 9 6 C11.475 6.99 11.475 6.99 14 8 C14 8.66 14 9.32 14 10 C14.71542969 10.2578125 15.43085938 10.515625 16.16796875 10.78125 C19.17160111 12.07384765 21.63505372 13.6277709 24.3125 15.5 C25.19550781 16.1084375 26.07851563 16.716875 26.98828125 17.34375 C27.98408203 18.16359375 27.98408203 18.16359375 29 19 C29 19.66 29 20.32 29 21 C30.10577393 21.4029126 30.10577393 21.4029126 31.23388672 21.81396484 C33.91670934 22.9642872 35.93114163 24.23062182 38.2578125 25.9765625 C39.04325439 26.56131348 39.82869629 27.14606445 40.63793945 27.74853516 C41.45866943 28.36776855 42.27939941 28.98700195 43.125 29.625 C44.82928172 30.89602827 46.53370805 32.16686267 48.23828125 33.4375 C49.0576416 34.05109375 49.87700195 34.6646875 50.72119141 35.296875 C53.57065022 37.42648981 56.4369235 39.53078704 59.3125 41.625 C60.14007813 42.22828125 60.96765625 42.8315625 61.8203125 43.453125 C63.74517913 44.81915938 65.69636129 46.10874589 67.6875 47.375 C68.450625 47.91125 69.21375 48.4475 70 49 C70 49.66 70 50.32 70 51 C70.99 51.2784375 70.99 51.2784375 72 51.5625 C77.09642858 54.0045387 81.50079567 57.66124124 84.5625 62.4375 C85.32437637 66.89991873 85.21621069 70.76197296 83.046875 74.75390625 C78.40468697 80.78036119 71.43259831 85.08180131 65 89 C64.34 89 63.68 89 63 89 C63 89.66 63 90.32 63 91 C60.61576083 92.77002527 58.22521948 94.42839883 55.75 96.0625 C54.26430797 97.06315151 52.77994196 98.06577447 51.296875 99.0703125 C50.56146484 99.56821289 49.82605469 100.06611328 49.06835938 100.57910156 C44.2557 103.88524858 39.64328815 107.46253235 35 111 C9.88527919 130 9.88527919 130 7 130 C7 130.66 7 131.32 7 132 C3.91190305 133.76462683 2.76687864 134 -1 134 C-1.11625936 129.43771459 -1.18727408 124.87581072 -1.25 120.3125 C-1.28351563 119.01892578 -1.31703125 117.72535156 -1.3515625 116.39257812 C-1.37089844 114.52182617 -1.37089844 114.52182617 -1.390625 112.61328125 C-1.41157227 111.46641846 -1.43251953 110.31955566 -1.45410156 109.13793945 C-0.79970156 104.61589472 1.37343375 102.37068447 4.79248047 99.48950195 C5.39463379 99.07659912 5.99678711 98.66369629 6.6171875 98.23828125 C7.64187134 97.52623535 7.64187134 97.52623535 8.68725586 96.79980469 C9.77018921 96.06358887 9.77018921 96.06358887 10.875 95.3125 C12.39494363 94.26231534 13.91446797 93.2115236 15.43359375 92.16015625 C16.19526855 91.63566895 16.95694336 91.11118164 17.74169922 90.57080078 C19.89963206 89.06981268 22.03391926 87.54156488 24.16015625 85.99609375 C24.79904785 85.53227295 25.43793945 85.06845215 26.09619141 84.59057617 C27.30253044 83.71229353 28.50672025 82.8310495 29.70849609 81.9465332 C33.77893952 79 33.77893952 79 36 79 C36 78.34 36 77.68 36 77 C37.38075343 76.02336952 38.76986321 75.05635143 40.19921875 74.15234375 C43.21735039 72.22100138 46.09265385 70.09328923 49 68 C46.85769441 65.69900511 44.97051851 63.98257912 42.25 62.375 C41.5075 61.92125 40.765 61.4675 40 61 C40 60.34 40 59.68 40 59 C38.92685547 58.61328125 38.92685547 58.61328125 37.83203125 58.21875 C34.82839889 56.92615235 32.36494628 55.3722291 29.6875 53.5 C28.80449219 52.8915625 27.92148437 52.283125 27.01171875 51.65625 C26.01591797 50.83640625 26.01591797 50.83640625 25 50 C25 49.34 25 48.68 25 48 C24.236875 47.71125 23.47375 47.4225 22.6875 47.125 C20 46 20 46 17 44 C17 43.34 17 42.68 17 42 C16.21625 41.690625 15.4325 41.38125 14.625 41.0625 C12 40 12 40 10 39 C10 38.34 10 37.68 10 37 C9.278125 36.7525 8.55625 36.505 7.8125 36.25 C4.13602647 34.61601177 0.83898291 32.67796581 -1 29 C-1.09719991 26.99144648 -1.13076533 24.979653 -1.1328125 22.96875 C-1.13410156 21.76605469 -1.13539063 20.56335938 -1.13671875 19.32421875 C-1.13285156 18.06222656 -1.12898438 16.80023438 -1.125 15.5 C-1.12886719 14.23800781 -1.13273437 12.97601563 -1.13671875 11.67578125 C-1.13542969 10.47308594 -1.13414062 9.27039063 -1.1328125 8.03125 C-1.13168457 6.92330078 -1.13055664 5.81535156 -1.12939453 4.67382812 C-1 2 -1 2 0 0 Z " fill="#274674" transform="translate(320,139)"/>
<path d="M0 0 C2.22303603 4.44607207 1.45333785 10.30566696 1.5625 15.1875 C1.62501953 16.40759766 1.68753906 17.62769531 1.75195312 18.88476562 C1.91033559 27.72058718 1.91033559 27.72058718 -0.61865234 31.27490234 C-2.65318202 33.07763182 -4.70377948 34.54990836 -7 36 C-8.00546875 36.76828125 -9.0109375 37.5365625 -10.046875 38.328125 C-10.93890625 38.96234375 -11.8309375 39.5965625 -12.75 40.25 C-13.65234375 40.89453125 -14.5546875 41.5390625 -15.484375 42.203125 C-16.31453125 42.79609375 -17.1446875 43.3890625 -18 44 C-18.72703125 44.57234375 -19.4540625 45.1446875 -20.203125 45.734375 C-22 47 -22 47 -24 47 C-24 47.66 -24 48.32 -24 49 C-26.0944968 50.63429751 -28.17782091 52.14167234 -30.375 53.625 C-30.97828125 54.04523438 -31.5815625 54.46546875 -32.203125 54.8984375 C-36.73462865 58 -36.73462865 58 -39 58 C-39 58.66 -39 59.32 -39 60 C-40.96875 61.5078125 -40.96875 61.5078125 -43.5 63.125 C-44.3353125 63.66382813 -45.170625 64.20265625 -46.03125 64.7578125 C-46.6809375 65.16773438 -47.330625 65.57765625 -48 66 C-47.2059375 66.55429688 -46.411875 67.10859375 -45.59375 67.6796875 C-44.5728125 68.40414062 -43.551875 69.12859375 -42.5 69.875 C-41.4790625 70.59429687 -40.458125 71.31359375 -39.40625 72.0546875 C-38.6121875 72.69664062 -37.818125 73.33859375 -37 74 C-37 74.66 -37 75.32 -37 76 C-36.236875 76.28875 -35.47375 76.5775 -34.6875 76.875 C-32 78 -32 78 -29 80 C-29 80.66 -29 81.32 -29 82 C-28.21625 82.309375 -27.4325 82.61875 -26.625 82.9375 C-24 84 -24 84 -22 85 C-22 85.66 -22 86.32 -22 87 C-21.236875 87.28875 -20.47375 87.5775 -19.6875 87.875 C-17 89 -17 89 -14 91 C-14 91.66 -14 92.32 -14 93 C-13.27296875 93.2578125 -12.5459375 93.515625 -11.796875 93.78125 C-8.8848975 95.0501564 -6.73467284 96.53227252 -4.25 98.5 C-3.47140625 99.1084375 -2.6928125 99.716875 -1.890625 100.34375 C0 102 0 102 1 104 C1.08543895 106.10528933 1.10714725 108.21331157 1.09765625 110.3203125 C1.09282227 112.20556641 1.09282227 112.20556641 1.08789062 114.12890625 C1.07532227 116.10697266 1.07532227 116.10697266 1.0625 118.125 C1.05748489 119.46484211 1.05292201 120.804686 1.04882812 122.14453125 C1.03701086 125.42973206 1.02053617 128.71484397 1 132 C-0.828125 132.61328125 -0.828125 132.61328125 -3 133 C-5.75 131.1875 -5.75 131.1875 -8 129 C-8 128.34 -8 127.68 -8 127 C-8.71414062 126.75121094 -9.42828125 126.50242187 -10.1640625 126.24609375 C-13.31080716 124.86343322 -15.65826371 123.16663889 -18.375 121.0625 C-19.42300781 120.26070313 -20.47101563 119.45890625 -21.55078125 118.6328125 C-22.38730225 117.99134277 -22.38730225 117.99134277 -23.24072266 117.33691406 C-26.31895899 114.99769366 -29.44129844 112.71889682 -32.5625 110.4375 C-33.19510742 109.97480713 -33.82771484 109.51211426 -34.47949219 109.03540039 C-35.7268326 108.12339943 -36.97438641 107.21169026 -38.22216797 106.30029297 C-39.89125526 105.07953508 -41.55739471 103.85487522 -43.22265625 102.62890625 C-44.18042969 101.92636719 -45.13820312 101.22382813 -46.125 100.5 C-46.95257813 99.8915625 -47.78015625 99.283125 -48.6328125 98.65625 C-51.02188332 96.92966887 -51.02188332 96.92966887 -53.8046875 95.40625 C-54.52914062 94.9421875 -55.25359375 94.478125 -56 94 C-56 93.34 -56 92.68 -56 92 C-57.051875 91.62875 -57.051875 91.62875 -58.125 91.25 C-61.39514548 89.82819762 -64.141122 88.12753712 -67 86 C-67 85.34 -67 84.68 -67 84 C-67.72960937 83.73703125 -68.45921875 83.4740625 -69.2109375 83.203125 C-74.83000282 80.77921447 -79.64584607 77.01071341 -83.0625 71.9375 C-84.12156264 68.61910372 -84.50417975 66.45723254 -84 63 C-81.29182945 58.25266065 -78.27069982 55.33267284 -73.875 52.125 C-72.29332031 50.95324219 -72.29332031 50.95324219 -70.6796875 49.7578125 C-68 48 -68 48 -66 48 C-66 47.34 -66 46.68 -66 46 C-63.9055032 44.36570249 -61.82217909 42.85832766 -59.625 41.375 C-59.02171875 40.95476562 -58.4184375 40.53453125 -57.796875 40.1015625 C-53.26537135 37 -53.26537135 37 -51 37 C-51 36.34 -51 35.68 -51 35 C-48.9055032 33.36570249 -46.82217909 31.85832766 -44.625 30.375 C-44.02171875 29.95476562 -43.4184375 29.53453125 -42.796875 29.1015625 C-38.26537135 26 -38.26537135 26 -36 26 C-36 25.34 -36 24.68 -36 24 C-34.02898534 22.49770224 -32.06404081 21.11349388 -30 19.75 C-28.80505626 18.94539478 -27.61104443 18.13940384 -26.41796875 17.33203125 C-25.83321777 16.93709473 -25.2484668 16.5421582 -24.64599609 16.13525391 C-21.84079051 14.20048589 -19.16116655 12.10807379 -16.48828125 9.99609375 C-15 9 -15 9 -13 9 C-13 8.34 -13 7.68 -13 7 C-10.91796875 5.2734375 -10.91796875 5.2734375 -8.1875 3.375 C-7.29417969 2.74335938 -6.40085937 2.11171875 -5.48046875 1.4609375 C-3 0 -3 0 0 0 Z " fill="#C01A1B" transform="translate(179,140)"/>
<path d="M0 0 C1.50046875 0.00386719 1.50046875 0.00386719 3.03125 0.0078125 C4.0315625 0.00523437 5.031875 0.00265625 6.0625 0 C8.53125 0.1328125 8.53125 0.1328125 9.53125 1.1328125 C9.62557985 3.34149081 9.64867431 5.55322771 9.64477539 7.76391602 C9.64492142 8.45656555 9.64506744 9.14921509 9.6452179 9.862854 C9.64451874 12.16250696 9.63672628 14.46207987 9.62890625 16.76171875 C9.62704208 18.35212662 9.62561817 19.94253507 9.62461853 21.53294373 C9.62079329 25.7267718 9.61096295 29.92056545 9.59991455 34.11437988 C9.58970057 38.39070164 9.58512094 42.66702894 9.58007812 46.94335938 C9.56934069 55.33985958 9.55226419 63.73633176 9.53125 72.1328125 C6.80282939 73.49702281 4.92171682 73.01088461 1.90625 72.6953125 C0.90335937 72.59347656 -0.09953125 72.49164063 -1.1328125 72.38671875 C-2.28910156 72.26103516 -2.28910156 72.26103516 -3.46875 72.1328125 C-3.46875 70.8128125 -3.46875 69.4928125 -3.46875 68.1328125 C-3.99082031 68.48214844 -4.51289063 68.83148438 -5.05078125 69.19140625 C-11.03844412 72.89306123 -16.37648786 74.65400179 -23.46875 74.1328125 C-29.26967168 72.59727441 -33.71221389 69.85531504 -37.46875 65.1328125 C-42.80726179 55.90352094 -44.2919665 46.13109767 -41.57421875 35.69921875 C-40.62673626 33.12461084 -39.6266401 30.61917473 -38.46875 28.1328125 C-37.80875 28.1328125 -37.14875 28.1328125 -36.46875 28.1328125 C-36.2625 27.5759375 -36.05625 27.0190625 -35.84375 26.4453125 C-33.20001255 21.99902678 -29.80189514 19.65125783 -25.09375 17.8203125 C-18.73745791 16.61480883 -14.54873238 16.43624613 -8.7109375 19.15625 C-7.91284668 19.52411621 -7.11475586 19.89198242 -6.29248047 20.27099609 C-5.69064941 20.55539551 -5.08881836 20.83979492 -4.46875 21.1328125 C-4.43116577 20.23187866 -4.43116577 20.23187866 -4.39282227 19.31274414 C-4.2771972 16.60669813 -4.15432064 13.90102967 -4.03125 11.1953125 C-3.99193359 10.24978516 -3.95261719 9.30425781 -3.91210938 8.33007812 C-3.84926758 6.98139648 -3.84926758 6.98139648 -3.78515625 5.60546875 C-3.74849854 4.77281494 -3.71184082 3.94016113 -3.67407227 3.08227539 C-3.36378381 0.13619532 -2.98554608 0.16061482 0 0 Z M-25.21875 33.5703125 C-29.63171143 39.08651429 -29.15014054 45.36938043 -28.46875 52.1328125 C-26.37817355 56.62368043 -24.05915105 59.21124927 -19.46875 61.1328125 C-15.24544003 61.67032468 -13.04125446 61.41906473 -9.21875 59.5078125 C-5.16310279 56.00520809 -3.67481689 52.75558927 -3 47.44140625 C-2.9896875 46.16394531 -2.979375 44.88648438 -2.96875 43.5703125 C-2.9378125 42.29027344 -2.906875 41.01023437 -2.875 39.69140625 C-3.60992018 35.2867202 -5.0409394 33.89339697 -8.46875 31.1328125 C-14.80502763 27.88740201 -19.79725478 29.11694143 -25.21875 33.5703125 Z " fill="#222221" transform="translate(351.46875,299.8671875)"/>
<path d="M0 0 C4.94367532 3.38694352 7.07872973 7.15446766 8.44989014 13.04101562 C9.09467088 16.74353522 9.08163278 20.38413692 9.03125 24.1328125 C9.0284201 24.94274658 9.02559021 25.75268066 9.02267456 26.5871582 C9.01158465 29.14420084 8.98650202 31.70087785 8.9609375 34.2578125 C8.9508932 36.00390115 8.9417699 37.74999535 8.93359375 39.49609375 C8.91168216 43.75013835 8.87723132 48.00391369 8.8359375 52.2578125 C4.06622021 53.28359529 0.64183396 52.99091535 -4.1640625 52.2578125 C-4.6590625 50.2778125 -4.6590625 50.2778125 -5.1640625 48.2578125 C-5.8240625 48.2578125 -6.4840625 48.2578125 -7.1640625 48.2578125 C-7.1640625 48.9178125 -7.1640625 49.5778125 -7.1640625 50.2578125 C-15.73940122 53.73136743 -22.42925706 55.90197637 -31.3046875 52.23828125 C-35.05466085 50.26087934 -37.40833569 47.58933116 -39.4765625 43.9453125 C-41.05987849 37.75598636 -40.70202453 32.6672111 -37.63671875 27.0859375 C-34.09443386 22.68861833 -28.59052116 20.393985 -23.1640625 19.2578125 C-21.65010554 19.17962614 -20.13312743 19.14991341 -18.6171875 19.16015625 C-17.77285156 19.16337891 -16.92851562 19.16660156 -16.05859375 19.16992188 C-15.18589844 19.17830078 -14.31320312 19.18667969 -13.4140625 19.1953125 C-12.52589844 19.19982422 -11.63773437 19.20433594 -10.72265625 19.20898438 C-8.53638921 19.2207385 -6.35026071 19.23717001 -4.1640625 19.2578125 C-5.76707893 14.423706 -5.76707893 14.423706 -9.09375 10.84765625 C-15.17414893 9.11531618 -19.89367671 9.84679524 -25.4765625 12.7578125 C-26.27707031 13.221875 -27.07757813 13.6859375 -27.90234375 14.1640625 C-30.1640625 15.2578125 -30.1640625 15.2578125 -34.1640625 15.2578125 C-34.94205857 5.23030759 -34.94205857 5.23030759 -32.1640625 1.7578125 C-31.1740625 1.2628125 -30.1840625 0.7678125 -29.1640625 0.2578125 C-28.0296875 -0.3196875 -26.8953125 -0.8971875 -25.7265625 -1.4921875 C-17.53603272 -4.29992593 -7.68437826 -4.08500406 0 0 Z M-24.1640625 31.2578125 C-24.1640625 31.9178125 -24.1640625 32.5778125 -24.1640625 33.2578125 C-24.8240625 33.2578125 -25.4840625 33.2578125 -26.1640625 33.2578125 C-26.1640625 35.5678125 -26.1640625 37.8778125 -26.1640625 40.2578125 C-20.90241071 43.54634487 -18.0313804 43.48805658 -12.1640625 42.2578125 C-9.77665709 41.31994902 -9.77665709 41.31994902 -8.1640625 40.2578125 C-8.1640625 39.5978125 -8.1640625 38.9378125 -8.1640625 38.2578125 C-7.5040625 38.2578125 -6.8440625 38.2578125 -6.1640625 38.2578125 C-4.31341931 35.13485212 -3.87050096 32.87840482 -4.1640625 29.2578125 C-5.86742251 27.55445249 -8.02852476 28.08598752 -10.3515625 28.0703125 C-15.52120902 28.11059546 -19.52602148 28.93879199 -24.1640625 31.2578125 Z " fill="#222221" transform="translate(293.1640625,319.7421875)"/>
<path d="M0 0 C0.81086563 -0.00315216 1.62173126 -0.00630432 2.45716858 -0.009552 C3.75732155 -0.00651566 3.75732155 -0.00651566 5.08374023 -0.00341797 C5.98100327 -0.00437469 6.8782663 -0.00533142 7.80271912 -0.00631714 C9.69644237 -0.0069967 11.59016796 -0.00515802 13.48388672 -0.00097656 C16.38506281 0.0043811 19.28608453 -0.00093235 22.18725586 -0.00732422 C24.02775099 -0.00666352 25.86824603 -0.00538253 27.70874023 -0.00341797 C29.01192955 -0.00645432 29.01192955 -0.00645432 30.34144592 -0.009552 C31.55301613 -0.00482376 31.55301613 -0.00482376 32.7890625 0 C33.49869644 0.00079559 34.20833038 0.00159119 34.93946838 0.00241089 C36.82983398 0.12939453 36.82983398 0.12939453 39.82983398 1.12939453 C39.85669951 3.10848851 39.87616774 5.08768424 39.89233398 7.06689453 C39.90393555 8.16904297 39.91553711 9.27119141 39.92749023 10.40673828 C39.82983398 13.12939453 39.82983398 13.12939453 38.82983398 14.12939453 C36.38152972 14.21783246 33.961628 14.24468205 31.51342773 14.22705078 C30.7823732 14.22563583 30.05131866 14.22422089 29.29811096 14.22276306 C26.95447766 14.21714861 24.61093859 14.20459375 22.26733398 14.19189453 C20.6820489 14.18688139 19.09676233 14.18231816 17.51147461 14.17822266 C13.61752856 14.16802374 9.72378722 14.1484514 5.82983398 14.12939453 C5.82983398 20.06939453 5.82983398 26.00939453 5.82983398 32.12939453 C7.91166992 32.11779297 9.99350586 32.10619141 12.13842773 32.09423828 C14.14729697 32.08728718 16.15616649 32.08037064 18.16503906 32.07446289 C19.56478627 32.06942374 20.96452819 32.06259237 22.36425781 32.05395508 C24.37229175 32.04187133 26.38036356 32.03669646 28.38842773 32.03173828 C30.20298462 32.02388306 30.20298462 32.02388306 32.05419922 32.01586914 C34.82983398 32.12939453 34.82983398 32.12939453 35.82983398 33.12939453 C35.92807394 34.60588329 35.95956917 36.0871487 35.95483398 37.56689453 C35.95870117 38.77152344 35.95870117 38.77152344 35.96264648 40.00048828 C35.82983398 42.12939453 35.82983398 42.12939453 34.82983398 44.12939453 C25.25983398 44.12939453 15.68983398 44.12939453 5.82983398 44.12939453 C5.94840884 52.55119446 5.94840884 52.55119446 6.10009766 60.97241211 C6.10759033 62.02066162 6.11508301 63.06891113 6.12280273 64.14892578 C6.14636841 65.75924683 6.14636841 65.75924683 6.17041016 67.40209961 C5.82983398 70.12939453 5.82983398 70.12939453 4.46435547 71.99633789 C2.09629552 73.63788624 0.51487713 73.25625163 -2.29516602 72.87939453 C-3.18461914 72.77111328 -4.07407227 72.66283203 -4.99047852 72.55126953 C-7.17016602 72.12939453 -7.17016602 72.12939453 -8.17016602 71.12939453 C-8.26445944 68.95133734 -8.2875914 66.77018173 -8.28369141 64.59008789 C-8.28383743 63.90719193 -8.28398346 63.22429596 -8.28413391 62.52070618 C-8.28343478 60.25351839 -8.27564242 57.9864118 -8.26782227 55.71923828 C-8.26595809 54.15125066 -8.26453418 52.58326246 -8.26353455 51.01527405 C-8.25970936 46.8806295 -8.24987908 42.74601987 -8.23883057 38.61138916 C-8.22861646 34.39539055 -8.22403693 30.17938631 -8.21899414 25.96337891 C-8.2082568 17.68536806 -8.19118038 9.40738563 -8.17016602 1.12939453 C-5.37810588 0.33976698 -2.89829758 0.00324574 0 0 Z " fill="#212120" transform="translate(147.170166015625,299.87060546875)"/>
<path d="M0 0 C1.79244141 0.01740234 1.79244141 0.01740234 3.62109375 0.03515625 C5.41740234 0.04869141 5.41740234 0.04869141 7.25 0.0625 C8.17683594 0.07410156 9.10367188 0.08570313 10.05859375 0.09765625 C10.95616963 3.90476765 11.15172451 7.37503571 11.0859375 11.28125 C11.07369141 12.45623047 11.06144531 13.63121094 11.04882812 14.84179688 C11.0137268 17.30018996 10.9746766 19.75852989 10.93164062 22.21679688 C10.92068359 23.39306641 10.90972656 24.56933594 10.8984375 25.78125 C10.88159912 26.84915771 10.86476074 27.91706543 10.84741211 29.01733398 C11.13391296 33.19627189 11.96537637 36.7420667 14.62109375 40.03515625 C19.2672993 42.06042533 24.39309187 40.65282354 29.05859375 39.09765625 C30.21695048 36.12262503 30.21695048 36.12262503 31.05859375 33.09765625 C31.38859375 32.76765625 31.71859375 32.43765625 32.05859375 32.09765625 C32.21831352 29.72426986 32.31783705 27.37647353 32.375 25 C32.3957811 24.29114151 32.41656219 23.58228302 32.43797302 22.85194397 C32.50353973 20.5797832 32.56238605 18.30750361 32.62109375 16.03515625 C32.66427224 14.49803442 32.7078863 12.96092475 32.75195312 11.42382812 C32.85922824 7.64856035 32.96047512 3.87317265 33.05859375 0.09765625 C35.20436012 0.07079687 37.3502202 0.05132537 39.49609375 0.03515625 C40.69105469 0.02355469 41.88601562 0.01195312 43.1171875 0 C46.05859375 0.09765625 46.05859375 0.09765625 47.05859375 1.09765625 C47.15199809 2.72440403 47.17604546 4.35519676 47.17211914 5.98461914 C47.17204361 7.02562271 47.17196808 8.06662628 47.17189026 9.13917542 C47.16672897 10.27145065 47.16156769 11.40372589 47.15625 12.5703125 C47.15483505 13.72309189 47.1534201 14.87587128 47.15196228 16.06358337 C47.1463438 19.76246689 47.13378817 23.46129089 47.12109375 27.16015625 C47.11608113 29.66080642 47.11151781 32.16145754 47.10742188 34.66210938 C47.09636837 40.80731213 47.07961227 46.95247994 47.05859375 53.09765625 C43.5609506 53.85424767 40.80242843 54.13787285 37.24609375 53.66015625 C36.45589844 53.55832031 35.66570312 53.45648438 34.8515625 53.3515625 C34.25988281 53.26777344 33.66820312 53.18398438 33.05859375 53.09765625 C32.56359375 51.11765625 32.56359375 51.11765625 32.05859375 49.09765625 C31.29546875 49.71640625 30.53234375 50.33515625 29.74609375 50.97265625 C24.53513011 54.39350062 18.32595971 55.68604957 12.1953125 54.58203125 C9.0146161 53.64301234 6.02501536 52.58086705 3.05859375 51.09765625 C3.05859375 50.43765625 3.05859375 49.77765625 3.05859375 49.09765625 C2.39859375 49.09765625 1.73859375 49.09765625 1.05859375 49.09765625 C0.39951957 47.91745365 -0.24290105 46.72794891 -0.87890625 45.53515625 C-1.23855469 44.87386719 -1.59820312 44.21257812 -1.96875 43.53125 C-4.16729352 38.03047645 -4.09156798 32.08061279 -4.07421875 26.23046875 C-4.07517548 25.51027557 -4.0761322 24.7900824 -4.07711792 24.04806519 C-4.07779351 22.5405061 -4.07598296 21.032944 -4.07177734 19.52539062 C-4.06637269 17.20826825 -4.07176736 14.89133556 -4.078125 12.57421875 C-4.07746503 11.10546832 -4.07618556 9.63671801 -4.07421875 8.16796875 C-4.07624298 7.4732547 -4.07826721 6.77854065 -4.08035278 6.06277466 C-4.05106371 0.13449747 -4.05106371 0.13449747 0 0 Z " fill="#242523" transform="translate(197.94140625,318.90234375)"/>
<path d="M0 0 C1.79244141 0.01740234 1.79244141 0.01740234 3.62109375 0.03515625 C5.41740234 0.04869141 5.41740234 0.04869141 7.25 0.0625 C8.17683594 0.07410156 9.10367188 0.08570313 10.05859375 0.09765625 C10.95616963 3.90476765 11.15172451 7.37503571 11.0859375 11.28125 C11.07369141 12.45623047 11.06144531 13.63121094 11.04882812 14.84179688 C11.0137268 17.30018996 10.9746766 19.75852989 10.93164062 22.21679688 C10.92068359 23.39306641 10.90972656 24.56933594 10.8984375 25.78125 C10.88159912 26.84915771 10.86476074 27.91706543 10.84741211 29.01733398 C11.13169841 33.16397007 11.86578883 36.76722 14.68359375 39.91015625 C18.1146345 41.62567663 21.24203781 41.77960992 25.05859375 42.09765625 C24.72859375 43.08765625 24.39859375 44.07765625 24.05859375 45.09765625 C23.39859375 45.09765625 22.73859375 45.09765625 22.05859375 45.09765625 C22.05859375 46.74765625 22.05859375 48.39765625 22.05859375 50.09765625 C22.71859375 50.42765625 23.37859375 50.75765625 24.05859375 51.09765625 C18.55974318 55.16202407 18.55974318 55.16202407 14.5078125 54.98828125 C10.36742939 54.17860633 6.78274369 53.10099208 3.05859375 51.09765625 C3.05859375 50.43765625 3.05859375 49.77765625 3.05859375 49.09765625 C2.39859375 49.09765625 1.73859375 49.09765625 1.05859375 49.09765625 C0.39951957 47.91745365 -0.24290105 46.72794891 -0.87890625 45.53515625 C-1.23855469 44.87386719 -1.59820312 44.21257812 -1.96875 43.53125 C-4.16729352 38.03047645 -4.09156798 32.08061279 -4.07421875 26.23046875 C-4.07517548 25.51027557 -4.0761322 24.7900824 -4.07711792 24.04806519 C-4.07779351 22.5405061 -4.07598296 21.032944 -4.07177734 19.52539062 C-4.06637269 17.20826825 -4.07176736 14.89133556 -4.078125 12.57421875 C-4.07746503 11.10546832 -4.07618556 9.63671801 -4.07421875 8.16796875 C-4.07624298 7.4732547 -4.07826721 6.77854065 -4.08035278 6.06277466 C-4.05106371 0.13449747 -4.05106371 0.13449747 0 0 Z " fill="#1E1F1D" transform="translate(197.94140625,318.90234375)"/>
<path d="M0 0 C0.7528125 -0.00515625 1.505625 -0.0103125 2.28125 -0.015625 C4.7296721 0.27749596 6.37304054 1.03183231 8.5 2.25 C8.5 2.91 8.5 3.57 8.5 4.25 C9.16 4.25 9.82 4.25 10.5 4.25 C13.85204714 8.1177467 14.00893329 11.90503617 13.85546875 16.80859375 C13.32863459 20.42696026 11.92077514 22.56024985 9.5 25.25 C4.65408232 28.33473614 -0.97353269 27.99522456 -6.5 27.25 C-9.72910257 25.62030283 -11.86074583 23.52850835 -13.5 20.25 C-14.53032087 10.41779511 -14.53032087 10.41779511 -12.5234375 6.1953125 C-9.04373536 1.90439145 -5.45335173 -0.03735172 0 0 Z " fill="#244370" transform="translate(360.5,265.75)"/>
<path d="M0 0 C7.92 0 15.84 0 24 0 C23.67 0.66 23.34 1.32 23 2 C23 4.97 23 7.94 23 11 C13.76 11 4.52 11 -5 11 C-5 10.67 -5 10.34 -5 10 C-1.535 9.505 -1.535 9.505 2 9 C2 8.34 2 7.68 2 7 C1.34 6.34 0.68 5.68 0 5 C0 3.33333333 0 1.66666667 0 0 Z " fill="#141513" transform="translate(157,332)"/>
<path d="M0 0 C0.66 0 1.32 0 2 0 C3.3359873 2.6719746 2.90164902 4.41696318 2.6484375 7.390625 C1.69362522 19.47098593 1.69362522 19.47098593 5.73046875 30.46777344 C10.15234911 34.70904738 15.29236866 37.73941498 20.64355469 40.67041016 C23.82890791 42.46769918 26.60646975 44.57800831 29.5 46.8125 C32.12387763 48.7596497 33.88655413 49.96218471 37 51 C38.09174241 52.12585936 39.18157583 53.25363245 40.26171875 54.390625 C44.16264637 58.00227035 48.66307442 60.93908755 53 64 C52.01 64.33 51.02 64.66 50 65 C47.73828125 63.85546875 47.73828125 63.85546875 45.3125 62.1875 C44.10013672 61.37345703 44.10013672 61.37345703 42.86328125 60.54296875 C41.94095703 59.77919922 41.94095703 59.77919922 41 59 C41 58.34 41 57.68 41 57 C39.92685547 56.61328125 39.92685547 56.61328125 38.83203125 56.21875 C35.82839889 54.92615235 33.36494628 53.3722291 30.6875 51.5 C29.80449219 50.8915625 28.92148437 50.283125 28.01171875 49.65625 C27.01591797 48.83640625 27.01591797 48.83640625 26 48 C26 47.34 26 46.68 26 46 C25.236875 45.71125 24.47375 45.4225 23.6875 45.125 C21 44 21 44 18 42 C18 41.34 18 40.68 18 40 C17.21625 39.690625 16.4325 39.38125 15.625 39.0625 C13 38 13 38 11 37 C11 36.34 11 35.68 11 35 C10.278125 34.7525 9.55625 34.505 8.8125 34.25 C5.13602647 32.61601177 1.83898291 30.67796581 0 27 C-0.08527628 24.96767366 -0.10716135 22.93252994 -0.09765625 20.8984375 C-0.09443359 19.68671875 -0.09121094 18.475 -0.08789062 17.2265625 C-0.07951172 15.95554688 -0.07113281 14.68453125 -0.0625 13.375 C-0.05798828 12.09625 -0.05347656 10.8175 -0.04882812 9.5 C-0.03701203 6.33328708 -0.02053815 3.16666644 0 0 Z " fill="#141D2C" transform="translate(319,141)"/>
<path d="M0 0 C1.67542976 0.28604898 3.34385343 0.61781233 5 1 C5.33 1.99 5.66 2.98 6 4 C5.01 4.495 5.01 4.495 4 5 C3.773125 5.804375 3.54625 6.60875 3.3125 7.4375 C2 10 2 10 -1.1875 11.3125 C-7.77653866 12.5006873 -12.18696184 12.59854743 -18 9 C-18.33 8.34 -18.66 7.68 -19 7 C-17 4 -17 4 -15 3 C-14.67 3.66 -14.34 4.32 -14 5 C-13.34 5 -12.68 5 -12 5 C-11.67 4.01 -11.34 3.02 -11 2 C-7.53188567 0.84396189 -4.63431887 1 -1 1 C-0.67 0.67 -0.34 0.34 0 0 Z " fill="#1A1B1A" transform="translate(280,362)"/>
<path d="M0 0 C0.99 0.33 1.98 0.66 3 1 C2.67 19.81 2.34 38.62 2 58 C0.02 58.495 0.02 58.495 -2 59 C-1.83923477 58.45349792 -1.67846954 57.90699585 -1.51283264 57.34393311 C-0.92945075 54.67755032 -0.83850442 52.22684703 -0.79467773 49.49707031 C-0.7647599 47.84581146 -0.7647599 47.84581146 -0.73423767 46.16119385 C-0.70916893 44.38757477 -0.70916893 44.38757477 -0.68359375 42.578125 C-0.66281265 41.36300232 -0.64203156 40.14787964 -0.62062073 38.89593506 C-0.55523172 35.01401427 -0.49628949 31.1320258 -0.4375 27.25 C-0.39430468 24.61848258 -0.35069006 21.98697201 -0.30664062 19.35546875 C-0.19956117 12.9037174 -0.09777486 6.45189871 0 0 Z " fill="#3B3A37" transform="translate(232,217)"/>
<path d="M0 0 C0.33 0 0.66 0 1 0 C0.67 5.28 0.34 10.56 0 16 C-0.33 16 -0.66 16 -1 16 C-1 21.28 -1 26.56 -1 32 C-2.32 32 -3.64 32 -5 32 C-5.0246985 28.04900072 -5.04285923 24.09803126 -5.05493164 20.14697266 C-5.06244036 18.14093449 -5.0751447 16.13491798 -5.08789062 14.12890625 C-5.09111328 12.87207031 -5.09433594 11.61523438 -5.09765625 10.3203125 C-5.10289307 9.15773926 -5.10812988 7.99516602 -5.11352539 6.79736328 C-5 4 -5 4 -4 2 C-3.01 1.67 -2.02 1.34 -1 1 C-0.67 0.67 -0.34 0.34 0 0 Z " fill="#2E3A4D" transform="translate(324,241)"/>
<path d="M0 0 C3.48330216 0.64505596 6.09432866 1.98217268 9 4 C9 4.66 9 5.32 9 6 C11.475 6.99 11.475 6.99 14 8 C14 8.66 14 9.32 14 10 C14.71542969 10.25523437 15.43085938 10.51046875 16.16796875 10.7734375 C19.20246618 12.0876888 21.63188911 13.69496016 24.3125 15.625 C25.19550781 16.25664062 26.07851563 16.88828125 26.98828125 17.5390625 C27.98408203 18.26222656 27.98408203 18.26222656 29 19 C28.42655063 21.86724686 28.1385485 22.8614515 26 25 C26 24.236875 26 23.47375 26 22.6875 C25.31525 19.89142015 25.31525 19.89142015 23.1875 19.140625 C21.74185319 18.67595281 20.28251261 18.25172202 18.8125 17.87109375 C17 17 17 17 16.25 14.91015625 C16.12625 13.96462891 16.12625 13.96462891 16 13 C12.71303767 12.20046862 11.28976808 11.90341064 8 13 C7.855625 11.88625 7.71125 10.7725 7.5625 9.625 C7.21627965 6.17857953 7.21627965 6.17857953 6 4 C4.68 4 3.36 4 2 4 C1.34 2.68 0.68 1.36 0 0 Z " fill="#4B6082" transform="translate(320,139)"/>
<path d="M0 0 C0.33 0 0.66 0 1 0 C1 6.6 1 13.2 1 20 C2.32 19.67 3.64 19.34 5 19 C6.29660434 16.50965614 6.29660434 16.50965614 7 14 C9.64 13.67 12.28 13.34 15 13 C15.33 11.68 15.66 10.36 16 9 C18.475 9.495 18.475 9.495 21 10 C18.17015973 12.9746228 15.23934977 15.39997658 11.875 17.75 C10.57175781 18.67039062 10.57175781 18.67039062 9.2421875 19.609375 C7 21 7 21 5 21 C5 21.66 5 22.32 5 23 C3.68 23.33 2.36 23.66 1 24 C0.01956036 21.05868109 -0.11621202 19.17498335 -0.09765625 16.11328125 C-0.09443359 15.17548828 -0.09121094 14.23769531 -0.08789062 13.27148438 C-0.07532227 11.80678711 -0.07532227 11.80678711 -0.0625 10.3125 C-0.05798828 9.32443359 -0.05347656 8.33636719 -0.04882812 7.31835938 C-0.03704303 4.87884526 -0.02059011 2.43945311 0 0 Z " fill="#354666" transform="translate(322,248)"/>
<path d="M0 0 C1.46300982 0.93018526 2.92025579 1.86944027 4.375 2.8125 C5.18710938 3.33457031 5.99921875 3.85664063 6.8359375 4.39453125 C9 6 9 6 11 9 C11.22705078 11.91088867 11.22705078 11.91088867 11.1953125 15.41796875 C11.18564453 17.29838867 11.18564453 17.29838867 11.17578125 19.21679688 C11.15902344 20.52712891 11.14226562 21.83746094 11.125 23.1875 C11.11496639 24.52277987 11.1058412 25.85806689 11.09765625 27.19335938 C11.07405292 30.46242015 11.04112594 33.73112028 11 37 C10.01 37 9.02 37 8 37 C8 28.09 8 19.18 8 10 C7.34 9.67 6.68 9.34 6 9 C6 8.34 6 7.68 6 7 C5.195625 6.773125 4.39125 6.54625 3.5625 6.3125 C2.716875 5.879375 1.87125 5.44625 1 5 C0.33984375 2.41796875 0.33984375 2.41796875 0 0 Z " fill="#C87675" transform="translate(169,235)"/>
<path d="M0 0 C0.66 0 1.32 0 2 0 C3.42267862 2.84535725 3.21971869 5.36218552 3.31640625 8.5390625 C3.35830078 9.84101563 3.40019531 11.14296875 3.44335938 12.484375 C3.48317299 13.86458045 3.52288522 15.24478883 3.5625 16.625 C3.60569407 18.01303415 3.64930865 19.40105528 3.69335938 20.7890625 C3.79972 24.19260256 3.90174714 27.59621778 4 31 C1.2539063 28.76701723 0.09680816 27.62519334 -0.45410156 24.06738281 C-0.4331543 22.95717773 -0.41220703 21.84697266 -0.390625 20.703125 C-0.37773437 19.49785156 -0.36484375 18.29257813 -0.3515625 17.05078125 C-0.31804687 15.79652344 -0.28453125 14.54226562 -0.25 13.25 C-0.23195313 11.98027344 -0.21390625 10.71054688 -0.1953125 9.40234375 C-0.14817153 6.26746923 -0.08237664 3.1341144 0 0 Z " fill="#363940" transform="translate(319,141)"/>
<path d="M0 0 C0.66 0.33 1.32 0.66 2 1 C1.67 1.66 1.34 2.32 1 3 C0.34 3 -0.32 3 -1 3 C-1 4.65 -1 6.3 -1 8 C-0.34 8.33 0.32 8.66 1 9 C-5.22689076 13.1512605 -5.22689076 13.1512605 -8.875 12.4375 C-11 11 -11 11 -12 8 C-4.17391304 1.39130435 -4.17391304 1.39130435 0 0 Z " fill="#151614" transform="translate(221,361)"/>
<path d="M0 0 C5.18170943 2.64165579 8.73701295 5.00954921 12 10 C12.82290433 12.83444826 12.95059402 14.9862351 13 18 C12.34 18.99 11.68 19.98 11 21 C9.37839771 19.37839771 9.41118053 17.34152005 9 15.125 C8.47337663 12.30262787 7.9099394 9.72981821 7 7 C5.35 7 3.7 7 2 7 C1.34 4.69 0.68 2.38 0 0 Z " fill="#5E718B" transform="translate(392,191)"/>
<path d="M0 0 C0.66 0 1.32 0 2 0 C2.14509751 4.41632177 2.23400818 8.83203193 2.3125 13.25 C2.35439453 14.50425781 2.39628906 15.75851563 2.43945312 17.05078125 C2.45556641 18.25605469 2.47167969 19.46132812 2.48828125 20.703125 C2.51446533 21.81333008 2.54064941 22.92353516 2.56762695 24.06738281 C2 27 2 27 -0.53051758 29.39355469 C-1.34544678 29.92368164 -2.16037598 30.45380859 -3 31 C-3 29.35 -3 27.7 -3 26 C-2.34 26 -1.68 26 -1 26 C-0.67 17.42 -0.34 8.84 0 0 Z " fill="#D88787" transform="translate(178,142)"/>
<path d="M0 0 C0.33 0 0.66 0 1 0 C1.48828125 1.98567708 1.9765625 3.97135417 2.46484375 5.95703125 C3.19240876 9.5413168 3.19240876 9.5413168 5.625 12 C7.63237254 12.84520949 9.65818872 13.64641255 11.6875 14.4375 C12.780625 14.953125 13.87375 15.46875 15 16 C15.33 16.99 15.66 17.98 16 19 C16.99 19 17.98 19 19 19 C19 19.99 19 20.98 19 22 C19.66 22 20.32 22 21 22 C21 22.66 21 23.32 21 24 C19.35 23.34 17.7 22.68 16 22 C16 21.34 16 20.68 16 20 C15.27167969 19.73960937 14.54335937 19.47921875 13.79296875 19.2109375 C10.9254918 17.96769574 8.77459316 16.53949689 6.3125 14.625 C5.54550781 14.03976563 4.77851562 13.45453125 3.98828125 12.8515625 C1.94610475 10.94981071 0.95731229 9.60348422 0 7 C-0.0777346 4.66796188 -0.08967728 2.33160941 0 0 Z " fill="#832019" transform="translate(96,204)"/>
<path d="M0 0 C0.99 0.33 1.98 0.66 3 1 C-0.8744388 4.11118163 -4.76791671 7.19600985 -8.6875 10.25 C-9.26822266 10.70890625 -9.84894531 11.1678125 -10.44726562 11.640625 C-14.77146112 15 -14.77146112 15 -17 15 C-17 15.66 -17 16.32 -17 17 C-18.98 17.99 -18.98 17.99 -21 19 C-21 18.01 -21 17.02 -21 16 C-20.34 16 -19.68 16 -19 16 C-19 15.01 -19 14.02 -19 13 C-18.030625 12.54625 -17.06125 12.0925 -16.0625 11.625 C-12.92920418 10.34213779 -12.92920418 10.34213779 -12 8 C-10.44140625 6.9296875 -10.44140625 6.9296875 -8.5625 5.875 C-7.94503906 5.52179688 -7.32757813 5.16859375 -6.69140625 4.8046875 C-5 4 -5 4 -3 4 C-3 3.34 -3 2.68 -3 2 C-2.01 1.34 -1.02 0.68 0 0 Z " fill="#994341" transform="translate(172,172)"/>
<path d="M0 0 C0.66 0.33 1.32 0.66 2 1 C2.0270043 2.45823212 2.04639787 3.91660675 2.0625 5.375 C2.07410156 6.18710937 2.08570313 6.99921875 2.09765625 7.8359375 C2 10 2 10 1 12 C-8.57 12 -18.14 12 -28 12 C-28 11.67 -28 11.34 -28 11 C-19.42 10.67 -10.84 10.34 -2 10 C-2 7.03 -2 4.06 -2 1 C-1.34 0.67 -0.68 0.34 0 0 Z " fill="#4F4F4B" transform="translate(181,332)"/>
<path d="M0 0 C0.33 0 0.66 0 1 0 C1 7.59 1 15.18 1 23 C-0.98 22.34 -2.96 21.68 -5 21 C-6.28866931 20.61482578 -7.5798124 20.23765253 -8.875 19.875 C-9.90625 19.58625 -10.9375 19.2975 -12 19 C-12 18.67 -12 18.34 -12 18 C-13.98 17.67 -15.96 17.34 -18 17 C-18 16.67 -18 16.34 -18 16 C-10.60491923 15.46217594 -8.47975163 16.67566594 -1 20 C-0.67 13.4 -0.34 6.8 0 0 Z " fill="#373733" transform="translate(348,301)"/>
<path d="M0 0 C2.11540154 3.17310231 2.62687022 5.40764538 3.33984375 9.0625 C4.15493099 11.45470869 4.97491404 12.48922158 7 14 C9.24133614 14.50016275 9.24133614 14.50016275 11.625 14.5625 C14.0390625 14.69140625 14.0390625 14.69140625 16 15 C16.33 15.66 16.66 16.32 17 17 C7.31877615 17.86097841 7.31877615 17.86097841 3.4375 14.625 C0.14452144 11.07871539 -0.12292809 9.58839124 -0.0625 4.875 C-0.05347656 3.96492188 -0.04445313 3.05484375 -0.03515625 2.1171875 C-0.02355469 1.41851562 -0.01195312 0.71984375 0 0 Z " fill="#182232" transform="translate(347,276)"/>
<path d="M0 0 C0.33 1.32 0.66 2.64 1 4 C-0.32 4 -1.64 4 -3 4 C-3.3403125 4.86625 -3.3403125 4.86625 -3.6875 5.75 C-5.33867256 8.58058154 -7.35621933 10.10190106 -10 12 C-11 12 -11 12 -14 11 C-9.85989729 6.45924219 -5.17609824 3.28157862 0 0 Z " fill="#4C5B77" transform="translate(335,232)"/>
<path d="M0 0 C0.66 0 1.32 0 2 0 C3.85035348 3.70070696 3.4754747 7.96155254 3 12 C1.91546245 14.41534564 0.72477676 15.9518276 -1 18 C-1.66 16.68 -2.32 15.36 -3 14 C-2.34 13.34 -1.68 12.68 -1 12 C-0.33608709 7.88373998 0 4.17151171 0 0 Z " fill="#4E5A7B" transform="translate(371,273)"/>
<path d="M0 0 C3.34708051 1.54841575 6.24667512 3.49105864 9.25 5.625 C10.14203125 6.25664062 11.0340625 6.88828125 11.953125 7.5390625 C12.96632813 8.26222656 12.96632813 8.26222656 14 9 C11 10 11 10 8.8125 9.0625 C8.214375 8.711875 7.61625 8.36125 7 8 C7 7.34 7 6.68 7 6 C6.01 6 5.02 6 4 6 C3.67 5.34 3.34 4.68 3 4 C1.02 4.99 1.02 4.99 -1 6 C-1.625 4.125 -1.625 4.125 -2 2 C-1.34 1.34 -0.68 0.68 0 0 Z " fill="#495E85" transform="translate(370,175)"/>
<path d="M0 0 C-0.33 9.57 -0.66 19.14 -1 29 C-1.33 29 -1.66 29 -2 29 C-2.33 20.75 -2.66 12.5 -3 4 C-4.65 4.33 -6.3 4.66 -8 5 C-3.375 0 -3.375 0 0 0 Z " fill="#C24142" transform="translate(179,140)"/>
<path d="M0 0 C1.65 0 3.3 0 5 0 C2.22719294 3.08089673 -0.06326356 4.68775452 -4 6 C-4 6.66 -4 7.32 -4 8 C-5.98 8.99 -5.98 8.99 -8 10 C-8 7 -8 7 -7 4 C-6.34 4 -5.68 4 -5 4 C-4.67 3.34 -4.34 2.68 -4 2 C-3.01 2 -2.02 2 -1 2 C-0.67 1.34 -0.34 0.68 0 0 Z " fill="#9F3537" transform="translate(144,192)"/>
<path d="M0 0 C0.66 0.33 1.32 0.66 2 1 C1.25 2.9375 1.25 2.9375 0 5 C-1.33333333 5.33333333 -2.66666667 5.66666667 -4 6 C-4.6837045 7.32467746 -5.34964186 8.65863633 -6 10 C-8.125 11.25 -8.125 11.25 -10 12 C-10 11.34 -10 10.68 -10 10 C-10.66 9.67 -11.32 9.34 -12 9 C-10.3790787 7.82767315 -8.75313167 6.6622923 -7.125 5.5 C-5.76761719 4.52546875 -5.76761719 4.52546875 -4.3828125 3.53125 C-2 2 -2 2 0 2 C0 1.34 0 0.68 0 0 Z " fill="#B5383B" transform="translate(128,175)"/>
<path d="M0 0 C0.33 0 0.66 0 1 0 C1.33 9.57 1.66 19.14 2 29 C1.01 29 0.02 29 -1 29 C-0.67 19.43 -0.34 9.86 0 0 Z " fill="#0D0C0A" transform="translate(232,320)"/>
<path d="M0 0 C3.75361248 1.3193717 6.40106974 2.94528506 9.4375 5.5 C12.83785615 8.23506907 15.67721761 10.00243483 20 11 C19.67 11.99 19.34 12.98 19 14 C11.85315517 10.64940069 5.30412324 5.83453556 0 0 Z " fill="#801F1E" transform="translate(149,251)"/>
<path d="M0 0 C1.98 0.99 3.96 1.98 6 3 C6 3.66 6 4.32 6 5 C2.5647952 7.29013653 1.014669 7.17842973 -3 7 C-3 5.35 -3 3.7 -3 2 C-2.01 2 -1.02 2 0 2 C0 1.34 0 0.68 0 0 Z " fill="#274067" transform="translate(356,240)"/>
<path d="M0 0 C-2.26215763 1.70035362 -4.53338233 3.38515921 -6.8125 5.0625 C-7.77639648 5.79049805 -7.77639648 5.79049805 -8.75976562 6.53320312 C-10.45092901 7.76871627 -12.22220746 8.89276018 -14 10 C-14.99 9.67 -15.98 9.34 -17 9 C-5.35728677 -1.78576226 -5.35728677 -1.78576226 0 0 Z " fill="#2C3A56" transform="translate(380,232)"/>
<path d="M0 0 C2 0.66666667 4 1.33333333 6 2 C7.5778125 2.3403125 7.5778125 2.3403125 9.1875 2.6875 C12.31123635 4.14524363 12.58313183 4.61064093 13.875 7.625 C14.24625 8.73875 14.6175 9.8525 15 11 C10.97359682 9.61951891 8.26731048 7.69553115 5 5 C4.071875 4.46375 3.14375 3.9275 2.1875 3.375 C1.465625 2.92125 0.74375 2.4675 0 2 C0 1.34 0 0.68 0 0 Z " fill="#8A1E1F" transform="translate(123,232)"/>
<path d="M0 0 C1.0326802 2.78823655 1.04509293 3.8677274 0.0625 6.75 C-0.288125 7.4925 -0.63875 8.235 -1 9 C-1.66 7.68 -2.32 6.36 -3 5 C-3.66 5 -4.32 5 -5 5 C-5 5.66 -5 6.32 -5 7 C-6.32 7.33 -7.64 7.66 -9 8 C-8.01437243 4.68470727 -7.34552581 3.25050621 -4.5 1.1875 C-2 0 -2 0 0 0 Z " fill="#2F2F2C" transform="translate(291,363)"/>
<path d="M0 0 C11.70615034 7.11389522 11.70615034 7.11389522 16 12 C12.83548038 11.36567062 10.48312221 10.26817072 7.75 8.5625 C7.04359375 8.13066406 6.3371875 7.69882813 5.609375 7.25390625 C5.07828125 6.84011719 4.5471875 6.42632812 4 6 C4 5.34 4 4.68 4 4 C2.68 3.34 1.36 2.68 0 2 C0 1.34 0 0.68 0 0 Z " fill="#101929" transform="translate(356,194)"/>
<path d="M0 0 C0 0.66 0 1.32 0 2 C-0.99 2 -1.98 2 -3 2 C-3.33 3.65 -3.66 5.3 -4 7 C-9.625 9.125 -9.625 9.125 -13 8 C-11.87926138 7.16094435 -10.75325453 6.32892169 -9.625 5.5 C-8.99851562 5.0359375 -8.37203125 4.571875 -7.7265625 4.09375 C-6 3 -6 3 -4 3 C-4 2.34 -4 1.68 -4 1 C-2 0 -2 0 0 0 Z " fill="#50607B" transform="translate(360,215)"/>
<path d="M0 0 C2.03144641 0.93446535 4.03533587 1.93224776 6 3 C6 3.66 6 4.32 6 5 C6.66 5.33 7.32 5.66 8 6 C6 7 6 7 3.8359375 6.44140625 C3.02382813 6.15136719 2.21171875 5.86132812 1.375 5.5625 C0.55773437 5.27503906 -0.25953125 4.98757812 -1.1015625 4.69140625 C-1.72804688 4.46324219 -2.35453125 4.23507813 -3 4 C-2.67 3.01 -2.34 2.02 -2 1 C-1.34 0.67 -0.68 0.34 0 0 Z " fill="#4E638A" transform="translate(384,185)"/>
<path d="M0 0 C4.81033104 2.54664585 8.32442148 4.99027798 12 9 C10.35 9.33 8.7 9.66 7 10 C4 6.25 4 6.25 4 4 C2.68 3.34 1.36 2.68 0 2 C0 1.34 0 0.68 0 0 Z " fill="#61738F" transform="translate(358,166)"/>
<path d="M0 0 C0.33 0 0.66 0 1 0 C1.33 9.57 1.66 19.14 2 29 C1.01 28.34 0.02 27.68 -1 27 C-1.2487793 24.29443359 -1.2487793 24.29443359 -1.07421875 20.8984375 C-1.01943359 19.68671875 -0.96464844 18.475 -0.90820312 17.2265625 C-0.83537109 15.95554688 -0.76253906 14.68453125 -0.6875 13.375 C-0.62626953 12.09625 -0.56503906 10.8175 -0.50195312 9.5 C-0.34830048 6.33239153 -0.18039202 3.16618013 0 0 Z " fill="#243348" transform="translate(321,143)"/>
<path d="M0 0 C1.65 0.33 3.3 0.66 5 1 C4.67 1.66 4.34 2.32 4 3 C-0.82425944 4.47180796 -4.92477148 5.25376143 -10 5 C-10 4.34 -10 3.68 -10 3 C-6.7 2.67 -3.4 2.34 0 2 C0 1.34 0 0.68 0 0 Z " fill="#2E2E28" transform="translate(338,369)"/>
<path d="M0 0 C1.41623216 -0.05447047 2.83308191 -0.09300508 4.25 -0.125 C5.03890625 -0.14820313 5.8278125 -0.17140625 6.640625 -0.1953125 C9.20731941 0.0171622 10.7916067 0.71345895 13 2 C13 2.66 13 3.32 13 4 C13.66 4 14.32 4 15 4 C15 4.66 15 5.32 15 6 C14.21625 5.649375 13.4325 5.29875 12.625 4.9375 C11.75875 4.628125 10.8925 4.31875 10 4 C9.01 4.495 9.01 4.495 8 5 C8 4.34 8 3.68 8 3 C7.4225 2.87625 6.845 2.7525 6.25 2.625 C3.97387794 1.99274387 2.09239794 1.08136532 0 0 Z " fill="#6B7790" transform="translate(356,266)"/>
<path d="M0 0 C3.02419525 0.58803797 6.01758453 1.22678118 9 2 C9.33 3.65 9.66 5.3 10 7 C6.47967572 7 5.5614657 6.29648649 3 4 C3 3.34 3 2.68 3 2 C2.01 1.67 1.02 1.34 0 1 C0 0.67 0 0.34 0 0 Z " fill="#871D1D" transform="translate(168,265)"/>
<path d="M0 0 C1.51056694 0.89914699 3.00825429 1.81996101 4.5 2.75 C5.3353125 3.26046875 6.170625 3.7709375 7.03125 4.296875 C8.00578125 5.13992187 8.00578125 5.13992187 9 6 C9 7.32 9 8.64 9 10 C8.01 9.67 7.02 9.34 6 9 C6 8.34 6 7.68 6 7 C5.195625 6.773125 4.39125 6.54625 3.5625 6.3125 C2.716875 5.879375 1.87125 5.44625 1 5 C0.33984375 2.41796875 0.33984375 2.41796875 0 0 Z " fill="#C85C5B" transform="translate(169,235)"/>
<path d="M0 0 C0.33 1.32 0.66 2.64 1 4 C0.34 4 -0.32 4 -1 4 C-0.814375 5.258125 -0.62875 6.51625 -0.4375 7.8125 C0.00732761 10.82744268 -0.00156154 12.00468461 -1 15 C-1.66 14.67 -2.32 14.34 -3 14 C-3.29341888 8.32723489 -3.00559652 5.00932754 0 0 Z " fill="#4B403E" transform="translate(256,347)"/>
<path d="M0 0 C0.66 0.33 1.32 0.66 2 1 C1.67 2.32 1.34 3.64 1 5 C-0.32 5 -1.64 5 -3 5 C-3 5.66 -3 6.32 -3 7 C-4.98 7.33 -6.96 7.66 -9 8 C-6.17493137 5.0702992 -3.21203935 2.49825283 0 0 Z " fill="#BA4C4F" transform="translate(158,153)"/>
<path d="M0 0 C0.33 0.66 0.66 1.32 1 2 C1.66 2.33 2.32 2.66 3 3 C-1.75 6 -1.75 6 -4 6 C-4 6.66 -4 7.32 -4 8 C-4.99 8.33 -5.98 8.66 -7 9 C-5.64978174 4.58110387 -3.73884332 2.65654657 0 0 Z " fill="#4B5A74" transform="translate(354,267)"/>
<path d="M0 0 C0.99 0.66 1.98 1.32 3 2 C3 2.66 3 3.32 3 4 C2.030625 4.12375 1.06125 4.2475 0.0625 4.375 C-1.4534375 4.684375 -1.4534375 4.684375 -3 5 C-3.33 5.66 -3.66 6.32 -4 7 C-5.32 6.67 -6.64 6.34 -8 6 C-7.01 5.67 -6.02 5.34 -5 5 C-5 4.34 -5 3.68 -5 3 C-2.5 1.375 -2.5 1.375 0 0 Z " fill="#BF4845" transform="translate(148,161)"/>
<path d="M0 0 C0.66 0.33 1.32 0.66 2 1 C1 3.9375 1 3.9375 -1 7 C-3.75878925 7.86518243 -6.06992426 7.90393194 -9 8 C-7.71034824 6.62437146 -6.37310707 5.29233607 -5 4 C-4.34 4 -3.68 4 -3 4 C-3 3.34 -3 2.68 -3 2 C-2.01 1.34 -1.02 0.68 0 0 Z " fill="#C25151" transform="translate(169,145)"/>
<path d="M0 0 C3.37503669 1.1858237 5.64722731 2.27573689 8 5 C4.86650268 6.04449911 4.01031744 5.93423645 1 5 C0.67 3.35 0.34 1.7 0 0 Z " fill="#C33F3F" transform="translate(128,206)"/>
<path d="M0 0 C-0.66 0 -1.32 0 -2 0 C-2.33 1.32 -2.66 2.64 -3 4 C-4.98 4 -6.96 4 -9 4 C-8.67 2.68 -8.34 1.36 -8 0 C-4.71303767 -0.79953138 -3.28976808 -1.09658936 0 0 Z " fill="#AD1F21" transform="translate(153,188)"/>
<path d="M0 0 C2.475 0.99 2.475 0.99 5 2 C5 2.66 5 3.32 5 4 C4.01 4.495 4.01 4.495 3 5 C1.86649466 7.01669827 1.86649466 7.01669827 1 9 C0.34 9 -0.32 9 -1 9 C-0.814375 8.38125 -0.62875 7.7625 -0.4375 7.125 C0.23686176 4.95839822 0.23686176 4.95839822 -1 3 C-0.34 3 0.32 3 1 3 C0.67 2.01 0.34 1.02 0 0 Z " fill="#141411" transform="translate(281,362)"/>
<path d="M0 0 C6.20970773 -0.33266291 10.28264895 0.54970669 16 3 C15.67 3.66 15.34 4.32 15 5 C10.545 4.01 10.545 4.01 6 3 C6 2.67 6 2.34 6 2 C3.03 1.505 3.03 1.505 0 1 C0 0.67 0 0.34 0 0 Z " fill="#61605C" transform="translate(330,317)"/>
<path d="M0 0 C1.65 0.33 3.3 0.66 5 1 C2.22719294 4.08089673 -0.06326356 5.68775452 -4 7 C-4.33 6.01 -4.66 5.02 -5 4 C-3.68 4 -2.36 4 -1 4 C-0.67 2.68 -0.34 1.36 0 0 Z " fill="#4A556C" transform="translate(338,257)"/>
<path d="M0 0 C0.66 0.33 1.32 0.66 2 1 C1.45912682 4.78611227 -0.11722332 6.55400767 -3 9 C-3.66 9 -4.32 9 -5 9 C-4.67 7.35 -4.34 5.7 -4 4 C-3.01 3.67 -2.02 3.34 -1 3 C-0.67 2.01 -0.34 1.02 0 0 Z " fill="#425269" transform="translate(401,210)"/>
<path d="M0 0 C1 3 1 3 0.0625 5.1875 C-0.4634375 6.0846875 -0.4634375 6.0846875 -1 7 C-3.97 6.505 -3.97 6.505 -7 6 C-2.25 1.125 -2.25 1.125 0 0 Z " fill="#B83A3B" transform="translate(110,189)"/>
<path d="M0 0 C4.12751449 0.60698743 7.3321148 2.03810791 11 4 C10.67 5.32 10.34 6.64 10 8 C8.33055479 6.85821872 6.6645052 5.71147095 5 4.5625 C4.071875 3.92441406 3.14375 3.28632813 2.1875 2.62890625 C1.465625 2.09136719 0.74375 1.55382812 0 1 C0 0.67 0 0.34 0 0 Z " fill="#202734" transform="translate(345,188)"/>
<path d="M0 0 C1.11375 0.3403125 1.11375 0.3403125 2.25 0.6875 C0.6 2.3375 -1.05 3.9875 -2.75 5.6875 C-3.08 5.0275 -3.41 4.3675 -3.75 3.6875 C-4.74 3.3575 -5.73 3.0275 -6.75 2.6875 C-4.29511132 0.41445492 -3.41240272 -0.38777304 0 0 Z " fill="#B93031" transform="translate(140.75,168.3125)"/>
<path d="M0 0 C1.65 0.33 3.3 0.66 5 1 C4.34 2.32 3.68 3.64 3 5 C1.35 5 -0.3 5 -2 5 C-1.34 3.35 -0.68 1.7 0 0 Z " fill="#2A3E60" transform="translate(329,262)"/>
<path d="M0 0 C3.48330216 0.64505596 6.09432866 1.98217268 9 4 C9 4.66 9 5.32 9 6 C9.66 6.33 10.32 6.66 11 7 C9.35 6.67 7.7 6.34 6 6 C6 5.34 6 4.68 6 4 C4.68 4 3.36 4 2 4 C1.34 2.68 0.68 1.36 0 0 Z " fill="#798397" transform="translate(320,139)"/>
<path d="M0 0 C5.95703125 -0.29296875 5.95703125 -0.29296875 8 0 C8.99 0.99 9.98 1.98 11 3 C7.04 2.67 3.08 2.34 -1 2 C-0.67 1.34 -0.34 0.68 0 0 Z " fill="#11120F" transform="translate(275,327)"/>
<path d="M0 0 C0 0.66 0 1.32 0 2 C-1.75 3.2890625 -1.75 3.2890625 -4 4.625 C-4.7425 5.07101563 -5.485 5.51703125 -6.25 5.9765625 C-6.8275 6.31429687 -7.405 6.65203125 -8 7 C-7.8125 4.625 -7.8125 4.625 -7 2 C-4.54236535 0.67665827 -2.79402354 0 0 0 Z " fill="#323F5A" transform="translate(355,248)"/>
<path d="M0 0 C1.98 0.99 3.96 1.98 6 3 C6 3.66 6 4.32 6 5 C6.99 5.33 7.98 5.66 9 6 C6 7 6 7 3 6 C0 2.55555556 0 2.55555556 0 0 Z " fill="#CE5C5A" transform="translate(159,228)"/>
<path d="M0 0 C3.68802044 1.22934015 4.72356973 2.93859378 7 6 C6.01 6.33 5.02 6.66 4 7 C2 5.1875 2 5.1875 0 3 C0 2.01 0 1.02 0 0 Z " fill="#161613" transform="translate(314,362)"/>
<path d="M0 0 C0.66 1.32 1.32 2.64 2 4 C-1.32307692 7.93846154 -1.32307692 7.93846154 -4.75 8.25 C-5.4925 8.1675 -6.235 8.085 -7 8 C-5.68 7.34 -4.36 6.68 -3 6 C-3 5.34 -3 4.68 -3 4 C-2.34 4 -1.68 4 -1 4 C-0.67 2.68 -0.34 1.36 0 0 Z " fill="#474844" transform="translate(288,354)"/>
<path d="M0 0 C1.67299959 0.65061095 3.33859237 1.32033324 5 2 C6.0828125 2.433125 6.0828125 2.433125 7.1875 2.875 C9.42020287 4.26081558 10.03786177 5.59465442 11 8 C6.40378078 6.5129879 3.53027653 4.20187872 0 1 C0 0.67 0 0.34 0 0 Z " fill="#7C1D1C" transform="translate(138,243)"/>
<path d="M0 0 C0.33 0.99 0.66 1.98 1 3 C-1.31 4.32 -3.62 5.64 -6 7 C-5.8125 5.1875 -5.8125 5.1875 -5 3 C-2.4375 1.25 -2.4375 1.25 0 0 Z " fill="#4A5974" transform="translate(368,208)"/>
<path d="M0 0 C0.99 0.33 1.98 0.66 3 1 C0.11912454 3.40072955 -2.56404834 5.47291037 -6 7 C-5.67 6.01 -5.34 5.02 -5 4 C-4.34 4 -3.68 4 -3 4 C-3 3.34 -3 2.68 -3 2 C-2.01 1.34 -1.02 0.68 0 0 Z " fill="#9C4E4D" transform="translate(172,172)"/>
<path d="M0 0 C0.99 0.495 0.99 0.495 2 1 C2.59355614 3.64860427 2.74209269 6.29197322 3 9 C2.01 9 1.02 9 0 9 C0 6.03 0 3.06 0 0 Z " fill="#12110D" transform="translate(259,325)"/>
<path d="M0 0 C-0.33 1.32 -0.66 2.64 -1 4 C-2.32 4.33 -3.64 4.66 -5 5 C-5.33 4.34 -5.66 3.68 -6 3 C-3.375 0 -3.375 0 0 0 Z " fill="#2B3C56" transform="translate(369,288)"/>
<path d="M0 0 C1.32 0.33 2.64 0.66 4 1 C2.68 2.32 1.36 3.64 0 5 C-0.99 4.67 -1.98 4.34 -3 4 C-3 3.34 -3 2.68 -3 2 C-2.01 2 -1.02 2 0 2 C0 1.34 0 0.68 0 0 Z " fill="#0F0F0C" transform="translate(215,369)"/>
<path d="M0 0 C0.66 0.33 1.32 0.66 2 1 C2 2.98 2 4.96 2 7 C1.01 7.495 1.01 7.495 0 8 C-0.38063221 5.6739143 -0.71269945 3.33944736 -1 1 C-0.67 0.67 -0.34 0.34 0 0 Z " fill="#364C6F" transform="translate(345,249)"/>
<path d="M0 0 C0.33 0 0.66 0 1 0 C1.35233161 5.37305699 1.35233161 5.37305699 1 8 C-1 10 -1 10 -3 11 C-3 9.35 -3 7.7 -3 6 C-2.34 6 -1.68 6 -1 6 C-0.67 4.02 -0.34 2.04 0 0 Z " fill="#9F3B38" transform="translate(178,162)"/>
<path d="M0 0 C2 1 2 1 2 1 Z M-6 1 C-4.02 1 -2.04 1 0 1 C0.33 1.99 0.66 2.98 1 4 C-1.31 3.67 -3.62 3.34 -6 3 C-6 2.34 -6 1.68 -6 1 Z " fill="#121210" transform="translate(149,369)"/>
<path d="M0 0 C0.99 0.33 1.98 0.66 3 1 C3 1.99 3 2.98 3 4 C3.99 4.33 4.98 4.66 6 5 C5.67 5.66 5.34 6.32 5 7 C4.01 7 3.02 7 2 7 C1.34 4.69 0.68 2.38 0 0 Z " fill="#455F7D" transform="translate(392,191)"/>
<path d="M0 0 C2.64 1.65 5.28 3.3 8 5 C5 6 5 6 2.875 5.3125 C1 4 1 4 0 0 Z " fill="#78889B" transform="translate(376,179)"/>
<path d="M0 0 C0.66 0.33 1.32 0.66 2 1 C1.375 2.9375 1.375 2.9375 0 5 C-3.125 5.75 -3.125 5.75 -6 6 C-4.71034824 4.62437146 -3.37310707 3.29233607 -2 2 C-1.34 2 -0.68 2 0 2 C0 1.34 0 0.68 0 0 Z " fill="#BB4E50" transform="translate(128,175)"/>
<path d="M0 0 C2.88437779 1.29299694 4.87219421 2.65941363 7 5 C6.67 5.66 6.34 6.32 6 7 C3.95880212 5.38405168 1.95927063 3.7143618 0 2 C0 1.34 0 0.68 0 0 Z " fill="#72716F" transform="translate(292,320)"/>
<path d="M0 0 C-2.64 1.65 -5.28 3.3 -8 5 C-8.33 4.01 -8.66 3.02 -9 2 C-3.375 -1.125 -3.375 -1.125 0 0 Z " fill="#3E495C" transform="translate(380,232)"/>
<path d="M0 0 C0.33 0.66 0.66 1.32 1 2 C0.34 2 -0.32 2 -1 2 C-1.33 3.65 -1.66 5.3 -2 7 C-4 6 -4 6 -6 4 C-4.02 2.68 -2.04 1.36 0 0 Z " fill="#526281" transform="translate(346,224)"/>
<path d="M0 0 C3.465 1.98 3.465 1.98 7 4 C6.67 4.66 6.34 5.32 6 6 C4.35 5.67 2.7 5.34 1 5 C0.67 3.35 0.34 1.7 0 0 Z " fill="#C85C5E" transform="translate(143,216)"/>
<path d="M0 0 C0 1.98 0 3.96 0 6 C-0.99 6 -1.98 6 -3 6 C-3.66 5.01 -4.32 4.02 -5 3 C-4.34 3 -3.68 3 -3 3 C-3 2.34 -3 1.68 -3 1 C-1 0 -1 0 0 0 Z " fill="#C04B4C" transform="translate(116,185)"/>
</svg>
